<svg width="44" height="43" viewBox="0 0 44 43" fill="none" xmlns="http://www.w3.org/2000/svg">
<path d="M21.9927 43C33.8669 43 43.4927 33.3741 43.4927 21.5C43.4927 9.62588 33.8669 0 21.9927 0C10.1186 0 0.492737 9.62588 0.492737 21.5C0.492737 33.3741 10.1186 43 21.9927 43Z" fill="url(#paint0_linear_156_36721)"/>
<mask id="mask0_156_36721" style="mask-type:luminance" maskUnits="userSpaceOnUse" x="9" y="9" width="26" height="25">
<path d="M34.2785 9.21387H9.70703V33.7853H34.2785V9.21387Z" fill="white"/>
</mask>
<g mask="url(#mask0_156_36721)">
<path d="M16.2555 29.6908C15.8985 29.6912 15.5477 29.5978 15.2376 29.4208C14.9276 29.2438 14.6689 28.9886 14.4878 28.6809C14.3067 28.3733 14.2101 28.0241 14.2058 27.6671C14.2016 27.3102 14.2901 26.9592 14.4638 26.6473L16.1375 23.6359C16.6697 22.6788 17.4491 21.8815 18.3931 21.3263C19.337 20.7712 20.4114 20.4784 21.5065 20.4785H22.4703C23.5654 20.4784 24.6398 20.7712 25.5837 21.3263C26.5277 21.8815 27.3071 22.6788 27.8393 23.6359L29.513 26.6473C29.6867 26.9592 29.7752 27.3102 29.7709 27.6671C29.7667 28.0241 29.6701 28.3733 29.489 28.6809C29.3079 28.9886 29.0491 29.2438 28.7391 29.4208C28.4291 29.5978 28.0783 29.6912 27.7213 29.6908H16.2555ZM17.8932 15.3574C17.8932 14.5475 18.133 13.7553 18.583 13.0818C19.033 12.4084 19.6724 11.8841 20.4207 11.5741C21.169 11.2642 21.9938 11.1822 22.7882 11.3402C23.5826 11.4982 24.3111 11.8892 24.8838 12.462C25.4566 13.0347 25.8476 13.7632 26.0056 14.5576C26.1637 15.352 26.0816 16.1768 25.7717 16.9251C25.4617 17.6734 24.9374 18.3128 24.264 18.7628C23.5905 19.2128 22.7983 19.4527 21.9884 19.4527C20.9032 19.4513 19.8638 19.0187 19.0969 18.2509C18.33 17.483 17.8991 16.4427 17.8991 15.3574H17.8932Z" fill="url(#paint1_linear_156_36721)"/>
</g>
<defs>
<linearGradient id="paint0_linear_156_36721" x1="5.73874" y1="7.439" x2="36.5697" y2="38.27" gradientUnits="userSpaceOnUse">
<stop stop-color="#E6E8E9"/>
<stop offset="1" stop-color="#C6C8CA"/>
</linearGradient>
<linearGradient id="paint1_linear_156_36721" x1="20.6965" y1="14.9844" x2="29.5116" y2="27.0064" gradientUnits="userSpaceOnUse">
<stop stop-color="#B9BABD"/>
<stop offset="1" stop-color="#A1A3A6"/>
</linearGradient>
</defs>
</svg>
